<?xml version="1.0" encoding="UTF-8"?>
<svg id="Layer_2" data-name="Layer 2" xmlns="http://www.w3.org/2000/svg" xmlns:xlink="http://www.w3.org/1999/xlink" viewBox="0 0 292.7 287.12">
  <defs>
    <style>
      .cls-1 {
        fill: #f3b721;
      }

      .cls-2 {
        fill: url(#radial-gradient);
      }
    </style>
    <radialGradient id="radial-gradient" cx="190.04" cy="129.22" fx="190.04" fy="129.22" r="137.94" gradientTransform="translate(-86.38 23.25) scale(1.22 .93)" gradientUnits="userSpaceOnUse">
      <stop offset="0" stop-color="#49434b"/>
      <stop offset=".35" stop-color="#3c373e"/>
      <stop offset="1" stop-color="#1b1b1f"/>
    </radialGradient>
  </defs>
  <g id="Layer_1-2" data-name="Layer 1">
    <g>
      <rect class="cls-2" width="292.7" height="287.12" rx="27.64" ry="27.64"/>
      <g>
        <path class="cls-1" d="m221.77,204.53l-22.95,4.74s-2.54-.69-2.79-.84-1.27-.23-1.27-.23c0,0-.38.38-1.14.15l-.63-.31-56.14.7c-5.22.07-7.25,4.16-2.9,5.9.11.04.21.08.33.13,0,0,2.08.58,4.9.58,2.5,0,3.67,1.91,1.77,2.89-2.13,1.1-5.86,1.78-12.38.74-14.84-2.37-15.29-2.92-19.78-2.06-4.82.92-16.55,6.16-27.01,4.21-2.62-.49-4.7-1.59-6.27-2.77-2.47-1.85-3.92-4.13-4.27-6.5-.29-1.96-.63-4.89-.57-7.78h151.4c-.15.28-.28.45-.28.45Z"/>
        <g>
          <path class="cls-1" d="m89.42,179.16c-5.47-3.18-9.67-7.76-12.62-13.74-2.94-5.98-4.42-13.2-4.42-21.67v-78.18h23.26v78.1c0,4.26.51,7.82,1.54,10.67,1.03,2.86,2.54,5.01,4.53,6.47,2,1.46,4.42,2.18,7.25,2.18s5.34-.73,7.33-2.18c2-1.45,3.5-3.61,4.5-6.47,1-2.86,1.5-6.41,1.5-10.67v-78.1h23.26v78.18c0,8.46-1.46,15.68-4.38,21.67-2.92,5.98-7.11,10.56-12.58,13.74-5.47,3.18-12.01,4.77-19.64,4.77s-14.09-1.59-19.56-4.77Z"/>
          <path class="cls-1" d="m176.48,85.94h-22.32v-20.37h67.74v20.37h-22.24v96.29h-23.18v-96.29Z"/>
        </g>
      </g>
    </g>
  </g>
</svg>